<svg id="Capa_1" enable-background="new 0 0 512.023 512.023" height="512" viewBox="0 0 512.023 512.023" width="512" xmlns="http://www.w3.org/2000/svg"><g><g><path d="m175.326 123.905c-.833-1.497-.248-3.348 1.25-4.179.009-.005.019-.01.028-.016 11.109-6.181 14.61-20.74 7.006-31.395-5.669-7.944-16.258-11.073-25.327-7.469-6.58 2.615-11.021 7.921-12.796 14.005-.794 2.72-3.601 4.282-6.331 3.523-6.105-1.699-12.955-.722-18.646 3.491-7.844 5.807-10.766 16.454-7.004 25.459 5.046 12.079 19.263 16.778 30.371 10.596.01-.005.019-.01.028-.016 1.496-.835 3.377-.356 4.21 1.141l16.208 29.128h2.84l24.37-13.369v-1.772z" fill="#ffdda8"/><g><path d="m182.075 159.673-16.208-29.128c-.833-1.497-2.714-1.976-4.21-1.141-.009.005-.019.01-.028.016-11.109 6.181-25.326 1.482-30.371-10.596-2.974-7.119-1.756-15.256 2.754-21.224-4.625-.139-9.367 1.206-13.5 4.265-7.844 5.807-10.766 16.454-7.004 25.459 5.046 12.079 19.263 16.778 30.371 10.596.01-.005.019-.01.028-.016 1.496-.835 3.377-.356 4.21 1.141l16.208 29.128h2.84l15.494-8.5z" fill="#ffd086"/></g><path d="m250.544 195.608c-13.049-3.704-24.491-11.65-32.687-22.458l-8.637-11.39c-6.65-8.769-18.738-11.309-28.355-5.958l-8.563 4.764c-9.616 5.351-13.831 16.962-9.885 27.236l5.124 13.339c1.325 3.451 2.311 6.989 2.989 10.574l3.254 4.963 58.719 20.678 41.063-24.178v-5.742c-6.865-5.469-14.708-9.468-23.022-11.828z" fill="#cb6c35"/><path d="m198.119 225.248 34.386 12.109 41.063-24.178v-5.742c-6.502-5.18-13.885-9.022-21.709-11.422-15.145 4.48-29.072 11.511-41.195 20.56-4.092 3.055-8.28 5.941-12.545 8.673z" fill="#ae5e2e"/><circle cx="413.596" cy="366.411" fill="#ffa90f" r="48.95"/><path d="m341.693 189.124c-30.239 0-58.029 9.779-79.936 26.131-8.977 6.7-18.393 12.631-28.154 17.77l-1.813 7.155-72.802 27.062 35.445 75.174s-38.123 41.519 15.531 74.274c2.903 1.772 5.264 3.496 7.143 5.171h157.183l-1.402-6.5c8.099 0 15.964-1.088 23.484-3.126-18.534-6.97-31.725-24.853-31.725-45.824 0-27.034 21.916-48.95 48.95-48.95 19.195 0 35.805 11.051 43.825 27.137 1.659-4.631 4.217-9.026 7.7-12.918.987-1.103 2.026-2.129 3.104-3.093.949-5.778 1.473-11.717 1.52-17.782.006-.733.009-1.471.009-2.214-.001-65.98-57.336-119.467-128.062-119.467z" fill="#cb6c35"/><path d="m493.047 338.621c-10.129.714-20 5.213-27.307 13.377-1.524 1.703-2.861 3.505-4.042 5.374.537 2.868.831 5.821.843 8.843.064-.003.126.001.19-.004 9.822-.693 19.394-5.055 26.479-12.971 3.668-4.098 6.307-8.755 7.952-13.657-1.209-.692-2.617-1.068-4.115-.962z" fill="#00e49d"/><path d="m466.121 352.18c7.085-7.917 16.657-12.278 26.479-12.971 1.583-.112 3.074.312 4.312 1.106 1.714-4.787 2.466-9.825 2.265-14.824-.161-3.991-3.592-7.062-7.577-6.781-9.822.693-19.394 5.055-26.479 12.971-3.485 3.893-6.043 8.291-7.702 12.924 2.076 4.164 3.571 8.666 4.392 13.399 1.235-2.035 2.666-3.987 4.31-5.824z" fill="#00d391"/><path d="m311.308 366.45c-8.942 4.196-15.144 13.263-15.144 23.794s6.202 19.598 15.144 23.794c9.926-3.354 17.075-12.736 17.075-23.794s-7.149-20.44-17.075-23.794z" fill="#f27182"/><path d="m296.899 390.244c0-10.556 6.516-19.586 15.742-23.301-2.897-1.167-6.059-1.815-9.374-1.815-8.231 0-15.536 3.959-20.117 10.077l-1.418 1.35v25.375l1.418 3.354c4.581 6.117 11.886 10.077 20.117 10.077 3.315 0 6.477-.648 9.374-1.815-9.226-3.716-15.742-12.746-15.742-23.302z" fill="#ed5469"/><path d="m313.793 323.345c7.774 5.242 16.711 7.409 25.391 6.803-2.518-8.36-7.818-15.937-15.622-21.199-7.823-5.275-16.86-7.344-25.573-6.528 2.7 8.248 8.051 15.696 15.804 20.924z" fill="#00e49d"/><path d="m338.915 329.3c-8.567.698-17.419-1.395-25.101-6.574-7.539-5.083-12.738-12.328-15.353-20.351-1.257.103-2.509.263-3.749.485-3.932.704-6.507 4.522-5.685 8.431 2.026 9.635 7.653 18.523 16.462 24.463 8.809 5.939 19.157 7.823 28.85 6.089 3.932-.704 6.507-4.521 5.685-8.431-.292-1.39-.668-2.761-1.109-4.112z" fill="#00d391"/><path d="m269.728 366.037c-9.712 3.76-16.61 13.168-16.61 24.207s6.898 20.447 16.61 24.207c10.62-2.931 18.422-12.655 18.422-24.207s-7.802-21.276-18.422-24.207z" fill="#ffc365"/><path d="m253.707 390.244c0-11.112 7.219-20.532 17.221-23.843-2.484-.822-5.136-1.273-7.895-1.273-13.871 0-25.116 11.245-25.116 25.116s11.245 25.116 25.116 25.116c2.759 0 5.411-.451 7.895-1.273-10.001-3.311-17.221-12.731-17.221-23.843z" fill="#ffa90f"/><path d="m194.878 342.453-35.527-75.347-30.228 11.236h-3.495c-26.674 19.374-42.443 45.133-40.112 71.994 0 35.912 26.76 65.024 59.771 65.024l7.503 6.5h65.84c-2.026-2.087-4.829-4.254-8.507-6.5-52.667-32.152-15.245-72.907-15.245-72.907z" fill="#ae5e2e"/><path d="m502.613 427.21c4.846-3.986 2.028-11.85-4.247-11.85h-483.603c-6.275 0-9.094 7.864-4.247 11.85l12.191 10.027c17.549 14.433 39.566 22.324 62.288 22.324h343.139c22.722 0 44.739-7.891 62.288-22.324z" fill="#dbedff"/><path d="m118.598 427.21c-4.846-3.986-2.028-11.85 4.247-11.85h-108.082c-6.275 0-9.094 7.864-4.247 11.85l12.191 10.027c17.549 14.433 39.566 22.324 62.288 22.324h108.082c-22.722 0-44.739-7.891-62.288-22.324z" fill="#b5dcff"/><path d="m104.789 160.773c.008-.007.016-.014.024-.022 9.391-8.568 9.453-23.542-.396-32.164-7.343-6.428-18.367-7.041-26.365-1.449-5.803 4.057-8.906 10.242-9.235 16.57-.147 2.83-2.52 4.995-5.352 4.883-6.332-.25-12.774 2.274-17.344 7.682-6.3 7.454-6.697 18.488-.967 26.388 7.686 10.596 22.603 11.902 31.994 3.333.008-.007.016-.014.024-.022 1.264-1.157 3.205-1.123 4.36.143l22.468 24.624h3.791l19.211-18.56v-2.428l-22.468-24.624c-1.156-1.265-1.012-3.201.255-4.354z" fill="#ffdda8"/><g><path d="m118.165 200.073-22.468-24.624c-1.155-1.265-3.096-1.3-4.36-.143-.008.007-.016.014-.024.021-9.391 8.569-24.307 7.263-31.994-3.333-4.892-6.743-5.303-15.763-1.405-22.897-4.4.98-8.566 3.355-11.795 7.177-6.3 7.454-6.697 18.488-.967 26.388 7.686 10.596 22.603 11.902 31.994 3.333.008-.007.016-.014.024-.022 1.264-1.157 3.205-1.123 4.36.143l22.468 24.624h3.791l11.041-10.667z" fill="#ffd086"/></g><path d="m239.807 238.97c-12.245-13.42-28.773-20.591-45.593-21.344-13.55-.606-26.512-5.71-36.972-14.345l-7.13-5.886c-.883.597-1.743 1.244-2.552 1.981l-7.41 6.761c-8.323 7.594-9.79 20.154-3.441 29.461l8.243 12.085c7.972 11.688 11.639 25.66 11.137 39.8-.641 18.03 5.92 36.327 19.915 50.204 3.039 3.013 6.315 5.664 9.766 7.97l18.055 2.068c10.53-2.023 20.67-6.618 29.376-13.854 29.039-24.132 31.77-67.322 6.606-94.901z" fill="#dd8858"/><g><path d="m176.931 336.064c-13.67-13.556-20.079-31.428-19.453-49.04.491-13.812-3.091-27.46-10.879-38.877l-8.052-11.805c-6.201-9.092-4.769-21.36 3.361-28.778l7.239-6.605c.864-.788 1.783-1.478 2.732-2.105l-5.661-4.673c-8.487-7.006-20.835-6.7-28.965.717l-7.239 6.605c-8.13 7.418-9.562 19.687-3.361 28.778l8.052 11.805c7.788 11.417 11.37 25.065 10.879 38.877-.626 17.612 5.783 35.484 19.453 49.04 5.723 5.676 12.291 10.072 19.319 13.202l25.833 2.959c-4.748-2.736-9.216-6.092-13.258-10.1z" fill="#cb6c35"/></g><path d="m206.019 342.11c-8.223-.361-16.627 1.807-23.976 6.762-7.473 5.039-12.678 12.171-15.39 20.087 8.288.487 16.794-1.628 24.209-6.628 7.507-5.062 12.693-12.267 15.319-20.249z" fill="#00e49d"/><path d="m182.415 349.167c7.241-4.883 15.523-7.019 23.625-6.663.519-1.52.954-3.065 1.284-4.634.822-3.909-1.752-7.727-5.685-8.431-9.692-1.734-20.041.15-28.85 6.089s-14.435 14.827-16.461 24.463c-.822 3.909 1.752 7.727 5.685 8.431 1.725.309 3.471.497 5.225.574 2.668-7.815 7.802-14.857 15.177-19.829z" fill="#00d391"/></g><g><path d="m292.837 295.477c-8.102 1.449-13.397 9.296-11.703 17.357 5.152 24.494 28.849 40.881 53.974 36.391 8.105-1.451 13.396-9.3 11.702-17.356-5.199-24.731-29.076-40.85-53.973-36.392zm3.068 14.693c16.434-2.722 32.419 7.792 36.133 24.363-16.419 2.72-32.417-7.784-36.133-24.363z"/><path d="m238.808 81.471v49.989c0 4.143 3.357 7.5 7.5 7.5s7.5-3.357 7.5-7.5v-49.989c0-4.143-3.357-7.5-7.5-7.5s-7.5 3.358-7.5 7.5z"/><path d="m299.142 131.461v-64.905c0-4.143-3.357-7.5-7.5-7.5s-7.5 3.357-7.5 7.5v64.904c0 4.143 3.357 7.5 7.5 7.5s7.5-3.357 7.5-7.499z"/><path d="m344.475 131.461v-79c0-4.143-3.357-7.5-7.5-7.5s-7.5 3.357-7.5 7.5v79c0 4.143 3.357 7.5 7.5 7.5s7.5-3.358 7.5-7.5z"/><path d="m389.808 131.461v-64.905c0-4.143-3.357-7.5-7.5-7.5s-7.5 3.357-7.5 7.5v64.904c0 4.143 3.357 7.5 7.5 7.5s7.5-3.357 7.5-7.499z"/><path d="m435.142 131.461v-49.99c0-4.143-3.357-7.5-7.5-7.5s-7.5 3.357-7.5 7.5v49.989c0 4.143 3.357 7.5 7.5 7.5s7.5-3.357 7.5-7.499z"/><path d="m497.812 407.86h-46.501c9.698-8.96 16.25-21.268 17.81-35.071 21.956-4.624 37.927-24.498 36.995-47.601-.33-8.202-7.352-14.538-15.598-13.961-4.842.341-9.524 1.424-13.925 3.162.855-23.27-4.078-43.426-13.853-61.962-1.933-3.663-6.467-5.069-10.133-3.135-3.663 1.932-5.067 6.469-3.135 10.133 10.972 20.803 14.275 43.407 11.169 65.489-1.486 1.499-3.008 3.24-4.403 5.119-10.966-13.088-26.909-20.072-43.198-20.072-51.26 0-75.833 63.131-38.305 97.865-1.63.048 1.492.034-44.596.034 3.278-5.085 5.188-11.13 5.188-17.616 0-17.984-14.632-32.616-32.616-32.616-7.333 0-14.423 2.528-20.114 6.974-5.547-4.362-12.532-6.974-20.121-6.974-17.984 0-32.616 14.632-32.616 32.616 0 6.486 1.911 12.531 5.188 17.616h-90.354c-28.806-.021-52.236-25.818-52.236-57.524 0-.217-.01-.433-.028-.648-1.672-19.28 7.601-39.164 25.763-56.028 3.118 22.318 16.518 41.432 34.757 52.349-2.174 4.074-3.684 8.473-4.519 12.44-.817 3.893-.043 7.854 2.182 11.152 2.224 3.299 5.605 5.502 9.521 6.203 19.366 3.467 38.228-5.562 48.026-21.469 53.595-13.002 73.783-78.563 37.321-119.653 21.911-12.881 45.229-38.059 95.655-38.059 33.696 0 66.096 13.246 88.89 36.343 2.909 2.948 7.658 2.979 10.606.069s2.979-7.658.069-10.606c-25.593-25.933-61.883-40.806-99.565-40.806-24.144 0-47.168 5.811-67.608 16.894-6.566-4.522-13.768-7.932-21.493-10.125-11.312-3.212-21.524-10.234-28.759-19.775l-8.639-11.391c-4.756-6.273-11.672-10.161-19.04-11.313l-12.269-22.048c5.307-4.104 9.076-9.965 10.57-16.594 5.161-22.903-17.679-41.84-38.943-33.396-7.724 3.069-13.644 9.108-16.519 16.755-8.016-1.588-16.267.26-22.946 5.205-7.544 5.585-11.703 14.578-11.619 23.679-9.494-5.252-21.588-4.879-30.675 1.476-6.812 4.762-11.186 11.998-12.228 20.102-8.164.297-15.771 3.991-21.136 10.339-8.468 10.02-9.019 25.005-1.31 35.632 9.248 12.747 26.757 15.799 39.69 7.156l17.008 18.64c-1.248 7.352.241 15.145 4.677 21.648 8.74 12.813 16.442 21.833 17.55 40.176-27.69 21.316-42.212 48.808-39.99 75.975.094 23.281 10.426 43.993 26.371 57.201h-89.619c-13.313 0-19.282 16.696-9.011 25.144l12.19 10.025c18.843 15.498 42.656 24.033 67.053 24.033h160.538c4.143 0 7.5-3.357 7.5-7.5s-3.357-7.5-7.5-7.5h-160.538c-20.93 0-41.358-7.322-57.524-20.618l-10.438-8.584h479.062l-10.438 8.585c-16.165 13.295-36.594 20.617-57.523 20.617h-147.601c-4.143 0-7.5 3.357-7.5 7.5s3.357 7.5 7.5 7.5h147.601c24.396 0 48.21-8.535 67.052-24.032l12.192-10.027c10.282-8.455 4.285-25.142-9.012-25.142zm-25.139-73.685c5.117-4.58 11.547-7.37 18.471-7.951.393 14.56-9.087 27.105-22.366 31.179-.654-4.098-2.007-8.902-3.737-12.974 2.396-5.125 6.632-9.754 7.632-10.254zm-309.467 26.936c3.674-16.337 19.449-27.119 36.133-24.363-3.669 16.325-19.451 27.125-36.133 24.363zm20.753-198.755c6.219-3.464 14.321-1.878 18.731 3.936l8.637 11.39c9.189 12.118 22.192 21.047 36.615 25.142 3.963 1.125 7.755 2.646 11.351 4.549-3.759 2.662-11.934 9.149-25.471 16.697-9.892-7.234-21.425-11.825-33.725-13.392-6.934-.903-13.101-.169-23.621-4.329-.675-2.702-1.506-5.345-2.485-7.896l-.001-.001-5.124-13.339c-2.621-6.823.335-14.546 6.53-17.993zm-59.538-54.464c3.544-2.623 7.98-3.457 12.172-2.293 6.639 1.847 13.611-2.031 15.542-8.647 1.219-4.177 4.268-7.507 8.366-9.136 10.305-4.093 21.245 5.17 18.769 16.159-.877 3.893-3.376 7.237-6.858 9.177-.009.005-.018.01-.027.015-5.138 2.851-7.01 9.272-4.165 14.385l11.3 20.308c-1.793.748-11.637 6.095-14.102 7.847l-11.3-20.307c-2.86-5.142-9.308-6.88-14.392-4.059-.029.016-.059.032-.088.049-3.479 1.92-7.623 2.275-11.382.971-10.64-3.689-12.748-17.87-3.835-24.469zm-5.646 36.651c0-.021-.002-.042-.002-.063 1.454.809 2.979 1.502 4.57 2.054 6.42 2.227 13.389 2.112 19.674-.233l12.269 22.049c-2.903 6.868-3.245 14.795-.422 22.144l.876 2.28-5.3-4.375c-6.07-5.011-13.696-7.206-21.132-6.636l-17.006-18.639c4.221-5.217 6.544-11.787 6.473-18.581zm-16.594 53.685-15.663-17.166c-3.941-4.323-10.63-4.59-14.966-.62-.006.005-.011.011-.017.016-5.994 5.466-15.73 4.88-20.864-2.201-3.711-5.114-3.448-12.324.623-17.142 2.847-3.368 6.987-5.202 11.322-5.029 6.882.285 12.777-5.106 13.137-11.987.227-4.346 2.429-8.287 6.043-10.813 9.071-6.338 21.863.125 21.98 11.412.041 3.993-1.626 7.825-4.573 10.515-.01.009-.02.018-.029.026-4.339 3.963-4.671 10.634-.734 14.944l15.663 17.168c-1.554 1.136-9.925 8.612-11.922 10.877zm10.114 27.826c-4.136-6.064-2.997-14.249 2.222-19.011l7.237-6.604c5.196-4.737 13.456-5.165 19.137-.474 11.98 9.889 25.952 23.967 52.436 25.153 12.463.558 24.937 5.234 34.883 13.635.667 1 26.559 20.188 19.607 55.805-3.638 18.644-16.097 34.16-33.389 41.835.008-6.738-4.782-13.045-12.02-14.339-14.822-2.654-29.629 1.99-40.25 11.949-5.816-2.908-14.278-9.912-20.104-18.701-6.518-9.835-9.912-21.317-9.526-34.169.937-27.32-11.194-41.828-20.233-55.079zm150.184 181.806c-9.714 0-17.616-7.902-17.616-17.616s7.902-17.616 17.616-17.616c9.723 0 17.616 7.93 17.616 17.616.001 9.694-7.896 17.616-17.616 17.616zm40.235 0c-3.97 0-7.709-1.293-10.748-3.646 1.601-3.367 2.702-7.303 3.022-11.437.449-5.914-.709-11.644-3.022-16.504 3.039-2.353 6.778-3.646 10.748-3.646 9.714 0 17.616 7.902 17.616 17.616s-7.902 17.617-17.616 17.617zm71.298-27.575c-3.181-8.876-3.25-18.7-.019-27.759l24.05 13.885zm31.531 26.882c-9.429-1.731-17.827-6.618-24.015-13.902l24.015-13.865zm0-53.746-24.029-13.873c6.063-7.106 14.477-12.141 24.029-13.895zm46.549 26.875-24.05-13.885 24.05-13.885c3.128 8.764 3.265 18.615 0 27.77zm-31.549-54.639c9.442 1.714 17.895 6.702 24.029 13.891l-24.029 13.873zm0 81.51v-27.766l24.028 13.873c-6.063 7.105-14.476 12.14-24.028 13.893z"/></g></g></svg>