<?xml version="1.0" encoding="iso-8859-1"?>
<!-- Generator: Adobe Illustrator 21.0.0, SVG Export Plug-In . SVG Version: 6.00 Build 0)  -->
<svg xmlns="http://www.w3.org/2000/svg" xmlns:xlink="http://www.w3.org/1999/xlink" version="1.1" id="Capa_1" x="0px" y="0px" viewBox="0 0 512 512" style="enable-background:new 0 0 512 512;" xml:space="preserve" width="512" height="512">
<g>
	<g>
		<path d="M224.383,330.533c1.4-4.226,2.117-8.586,2.117-13.033c0-13.668-7.027-26.849-19.924-37.614    C208.165,275.423,209,270.777,209,266c0-17.75-11.421-34.12-32.161-46.093C157.396,208.682,131.706,202.5,104.5,202.5    s-52.896,6.182-72.339,17.407C11.421,231.88,0,248.25,0,266c0,13.647,7.04,26.871,19.932,37.631    c-1.616,4.522-2.432,9.166-2.432,13.869c0,16.261,9.585,31.362,27.136,42.987c-1.419,4.247-2.136,8.602-2.136,13.013    c0,17.751,11.422,34.121,32.162,46.094C94.104,430.818,119.795,437,147,437c44.351,0,82.804-16.116,97.962-41.057    c2.151-3.54,1.026-8.153-2.514-10.305c-3.541-2.152-8.153-1.025-10.305,2.514C219.839,408.398,185.623,422,147,422    c-48.514,0-89.5-22.21-89.5-48.5c0-1.849,0.204-3.694,0.609-5.526C76.267,376.415,98.572,381,122,381    c27.205,0,52.896-6.182,72.338-17.406c9.849-5.686,17.596-12.363,23.017-19.708c8.55,5.923,14.475,12.754,17.298,20.007    c1.508,3.877,5.867,5.766,9.709,4.27c3.86-1.502,5.772-5.849,4.27-9.709C244.545,347.95,236.219,338.389,224.383,330.533z     M122,366c-46.468,0-95.1-22.659-89.011-53.448c12.8,7.206,28.628,12.446,45.691,15.032c4.093,0.617,7.918-2.196,8.539-6.292    c0.621-4.095-2.196-7.918-6.292-8.539C42.726,306.964,15,287.302,15,266c0-26.29,40.986-48.5,89.5-48.5S194,239.71,194,266    c0,4.271-1.096,8.508-3.212,12.608c-0.061,0.109-0.118,0.219-0.173,0.33c-3.636,6.855-10.131,13.315-19.133,18.884    c-15.653,9.683-36.998,15.554-60.101,16.533c-4.138,0.175-7.351,3.672-7.176,7.811c0.17,4.031,3.491,7.183,7.488,7.183    c0.107,0,0.215-0.002,0.323-0.007c39.248-1.662,71.645-15.866,87.14-36.048C236.225,327.198,185.496,366,122,366z"/>
		<path d="M480.209,96.164C461.613,81.725,434.289,75,394.22,75h-42.095c-4.143,0-7.5,3.358-7.5,7.5s3.357,7.5,7.5,7.5h42.095    C469.144,90,497,114.257,497,179.5S469.144,269,394.22,269h-93.055c4.703-4.693,9.047-10.437,12.928-17.161    c11.226-19.443,17.407-45.134,17.407-72.339s-6.182-52.896-17.407-72.339c-3.882-6.724-8.225-12.468-12.928-17.161H320    c4.143,0,7.5-3.358,7.5-7.5S324.143,75,320,75h-51.5c-0.047,0-0.095,0.001-0.142,0.002C268.239,75.001,268.119,75,268,75    c-17.75,0-34.12,11.421-46.093,32.161C210.682,126.604,204.5,152.294,204.5,179.5s6.182,52.896,17.407,72.339    C233.88,272.579,250.25,284,268,284c0.119,0,0.239-0.001,0.358-0.002c0.047,0.001,0.094,0.002,0.142,0.002h125.72    c40.069,0,67.394-6.725,85.989-21.164C501.602,246.228,512,218.968,512,179.5S501.602,112.772,480.209,96.164z M219.5,179.5    c0-48.514,22.21-89.5,48.5-89.5c0.096,0,0.193,0.001,0.289,0.002c0.04,0.001,0.08,0.001,0.12,0.002    C294.52,90.426,316.5,131.237,316.5,179.5s-21.98,89.074-48.092,89.496c-0.04,0-0.08,0.001-0.12,0.002    C268.193,268.999,268.096,269,268,269C241.71,269,219.5,228.014,219.5,179.5z"/>
		<path d="M272.289,145.19c1.415,3.907,5.723,5.903,9.606,4.497c3.895-1.411,5.908-5.711,4.497-9.606l-3.864-10.667    c-1.411-3.894-5.709-5.908-9.606-4.497c-3.895,1.411-5.907,5.712-4.497,9.606L272.289,145.19z"/>
		<path d="M260,185.754l-9.934-5.48c-3.627-2.001-8.189-0.683-10.19,2.944c-2.001,3.627-0.683,8.189,2.944,10.19l9.934,5.48    c3.613,1.994,8.181,0.696,10.189-2.944C264.944,192.317,263.627,187.755,260,185.754z"/>
		<path d="M277.074,243.922l7.754-8.281c2.831-3.023,2.675-7.77-0.349-10.601c-3.023-2.833-7.771-2.675-10.601,0.349l-7.754,8.281    c-2.831,3.023-2.675,7.77,0.349,10.601C269.503,247.109,274.25,246.939,277.074,243.922z"/>
		<path d="M117.743,268.116l-4.97,10.199c-1.814,3.723-0.267,8.213,3.457,10.027c3.707,1.807,8.206,0.282,10.027-3.457l4.97-10.199    c1.814-3.723,0.267-8.213-3.457-10.027C124.047,262.845,119.557,264.391,117.743,268.116z"/>
		<path d="M119.076,241.007c0.746-4.075-1.953-7.982-6.027-8.728l-9.397-1.72c-4.074-0.746-7.982,1.953-8.728,6.027    c-0.746,4.075,1.953,7.982,6.027,8.728l9.397,1.72C114.445,247.783,118.334,245.061,119.076,241.007z"/>
		<path d="M72.35,254.982l-9.398-1.72c-4.071-0.746-7.981,1.953-8.728,6.027c-0.746,4.075,1.953,7.982,6.027,8.728l9.398,1.72    c4.098,0.75,7.986-1.976,8.728-6.027C79.123,259.635,76.424,255.728,72.35,254.982z"/>
	</g>
</g>















</svg>
