<svg id="Layer_1" height="512" viewBox="0 0 512 512" width="512" xmlns="http://www.w3.org/2000/svg" data-name="Layer 1"><path d="m201.4 57.07a108.956 108.956 0 0 0 -17.44-1.41 107.473 107.473 0 0 0 -104.08 80.79q-1.14 4.455-1.89 9.07c-.51 3.08-.87 6.15-1.1 9.2-4.22 54.85 34.37 104.72 89.88 113.74l269.62 43.84 34.63-211.39z" fill="#dd494c"/><path d="m106.89 154.72c.23-3.05.59-6.12 1.1-9.2s1.13-6.1 1.89-9.07a107.42 107.42 0 0 1 89.113-79.721 108.908 108.908 0 0 0 -15.033-1.069 107.473 107.473 0 0 0 -104.08 80.79q-1.14 4.455-1.89 9.07c-.51 3.08-.87 6.15-1.1 9.2-4.22 54.85 34.37 104.72 89.88 113.74l269.62 43.84.778-4.751-240.398-39.089c-55.51-9.02-94.1-58.89-89.88-113.74z" fill="#b54349"/><ellipse cx="306.93" cy="410.95" fill="#dd494c" rx="72.85" ry="45.39"/><path d="m113.84 335.34c39.48 0 71.49 20.22 71.49 45.15s-32.01 45.15-71.49 45.15-71.48-20.21-71.48-45.15 32-45.15 71.48-45.15z" fill="#dd494c"/><path d="m79.49 136.35.39.1q-1.14 4.455-1.89 9.07c-.51 3.08-.87 6.15-1.1 9.2l-.4-.03s-45.1 56.35-62.53 19.87c-7.37-15.42.44-25.22 8.07-30.66a10.07 10.07 0 0 0 2.4-14.07c-5.51-7.75-9.85-19.78 2.12-32.12 28.17-29.07 52.94 38.64 52.94 38.64z" fill="#ba4247"/><path d="m471.02 100.91c17.18 2.79 33.4 50.16 29.35 109.74-4 59.01-46.8 104.44-63.98 101.65s-46.27-50.64-36.71-109.01 54.16-105.18 71.34-102.38z" fill="#f3c4ad"/><path d="m459.8 226.66c5.96.97 10.4 4.06 8.99 12.67s-7.38 14.81-13.33 13.84-9.63-8.73-8.22-17.34 6.61-10.13 12.56-9.17z" fill="#bb5866"/><path d="m459.32 139.57c5.95.97 10.39 4.05 8.98 12.67s-7.38 14.81-13.33 13.84-9.63-8.73-8.22-17.35 6.61-10.13 12.57-9.16z" fill="#bb5866"/><path d="m72.36 380.49c0-21.68 24.205-39.791 56.48-44.146a112.184 112.184 0 0 0 -15-1c-39.48 0-71.48 20.22-71.48 45.15s32 45.15 71.48 45.15a112.184 112.184 0 0 0 15-1c-32.275-4.361-56.48-22.465-56.48-44.154z" fill="#b54349"/><path d="m478.952 200.764a6.042 6.042 0 0 1 -.97-.079l-1.148-.187a6 6 0 1 1 1.925-11.844l1.148.186a6 6 0 0 1 -.955 11.924z" fill="#c69e8d"/><path d="m427.159 209.477a6.042 6.042 0 0 1 -.97-.079l-1.147-.187a6 6 0 1 1 1.925-11.844l1.148.186a6 6 0 0 1 -.956 11.924z" fill="#c69e8d"/><path d="m438.984 287.274a6.156 6.156 0 0 1 -.97-.078l-1.148-.187a6 6 0 0 1 1.926-11.844l1.148.186a6 6 0 0 1 -.956 11.923z" fill="#c69e8d"/><g fill="#8c373f"><path d="m80.69 368.21a6.009 6.009 0 1 1 4.24-1.76 6.047 6.047 0 0 1 -4.24 1.76z"/><path d="m129.69 407.41a6.009 6.009 0 1 1 4.24-1.76 6.029 6.029 0 0 1 -4.24 1.76z"/><path d="m110.09 387.81a5.992 5.992 0 1 1 4.25-1.76 6.029 6.029 0 0 1 -4.25 1.76z"/><path d="m129.69 368.21a5.992 5.992 0 1 1 4.25-1.76 6.047 6.047 0 0 1 -4.25 1.76z"/><path d="m70.89 397.61a5.992 5.992 0 1 1 4.25-1.76 6.029 6.029 0 0 1 -4.25 1.76z"/><path d="m168.89 387.81a5.992 5.992 0 1 1 4.25-1.76 6.029 6.029 0 0 1 -4.25 1.76z"/><path d="m270.81 397.61a6.009 6.009 0 1 1 4.24-1.76 6.029 6.029 0 0 1 -4.24 1.76z"/><path d="m319.81 436.81a5.992 5.992 0 1 1 4.25-1.76 6.029 6.029 0 0 1 -4.25 1.76z"/><path d="m300.21 417.21a6.009 6.009 0 1 1 4.24-1.76 6.029 6.029 0 0 1 -4.24 1.76z"/><path d="m319.81 397.61a5.992 5.992 0 1 1 4.25-1.76 6.029 6.029 0 0 1 -4.25 1.76z"/><path d="m261.01 427.01a5.992 5.992 0 1 1 4.25-1.76 6.029 6.029 0 0 1 -4.25 1.76z"/><path d="m359.01 417.21a5.992 5.992 0 1 1 4.25-1.76 6.029 6.029 0 0 1 -4.25 1.76z"/></g><path d="m170.627 250.775a6.042 6.042 0 0 1 -.97-.079 89.429 89.429 0 0 1 -73.2-69.568 6 6 0 1 1 11.741-2.479 77.435 77.435 0 0 0 63.381 60.2 6 6 0 0 1 -.956 11.923z" fill="#f4f8fc"/><path d="m100.665 164.983c-.1 0-.194 0-.292-.007a6 6 0 0 1 -5.706-6.28 90.3 90.3 0 0 1 1.084-10.266 6 6 0 1 1 11.842 1.939 78.241 78.241 0 0 0 -.94 8.9 6 6 0 0 1 -5.988 5.714z" fill="#f4f8fc"/><path d="m176.1 178.312a6 6 0 0 0 11.846-1.914c-5.061-31.305-.24-60.02 14.329-85.347 10.929-19 23.568-28.887 23.694-28.985a5.991 5.991 0 0 0 .9-.854l-15.06-2.449a127.972 127.972 0 0 0 -19.641 25.8c-11.142 19.172-22.976 51.004-16.068 93.749z" fill="#8c373f"/><path d="m271.105 96.988c-11.205 19.007-23.111 50.64-16.2 93.4a6 6 0 0 0 11.847-1.915c-5.058-31.288-.208-59.862 14.416-84.927 10.969-18.8 23.649-28.5 23.776-28.6a5.981 5.981 0 0 0 .949-.894l-15.161-2.452a125.839 125.839 0 0 0 -19.627 25.388z" fill="#8c373f"/><path d="m350.221 110.707c-11.347 19.364-23.421 51.422-16.51 94.177a6 6 0 0 0 5.916 5.044 6.085 6.085 0 0 0 .965-.078 6 6 0 0 0 4.966-6.881c-5.06-31.3-.1-60.152 14.752-85.743 11.1-19.124 23.894-29.212 24.136-29.4a6.036 6.036 0 0 0 .892-.847l-15.067-2.45a131.2 131.2 0 0 0 -20.05 26.178z" fill="#8c373f"/></svg>