<svg id="icons" enable-background="new 0 0 64 64" height="512" viewBox="0 0 64 64" width="512" xmlns="http://www.w3.org/2000/svg"><path d="m45.995 1h-27.99c-3.3 0-6 2.7-6 6v4 42c0 3.3 2.7 6 6 6h27.99c3.3 0 6-2.7 6-6v-42-4c0-3.3-2.7-6-6-6z" fill="#545c66"/><path d="m43.995 15h-6.64c.42-.64.649-1.31.649-2s-.229-1.36-.649-2h6.64c0-1.1.9-2 2-2 1.11 0 2 .9 2 2v4c0 1.11-.89 2-2 2-1.099 0-2-.89-2-2z" fill="#e6e9ed"/><path d="m37.355 11c.42.64.649 1.31.649 2s-.229 1.36-.649 2c-2.22 3.45-9.63 6-13.36 6-4.42 0-8-3.58-8-8s3.58-8 8-8c3.731 0 11.141 2.55 13.36 6z" fill="#ffd2a6"/><path d="m26.636 32h-6.641c0 1.1-.89 2-2 2-1.1 0-2-.9-2-2v-4c0-1.1.9-2 2-2 1.11 0 2 .9 2 2h6.641.01c-.42.64-.65 1.31-.65 2s.23 1.36.65 2z" fill="#e6e9ed"/><path d="m39.995 22c4.42 0 8 3.58 8 8s-3.58 8-8 8c-3.729 0-11.13-2.55-13.35-6-.42-.64-.65-1.31-.65-2s.23-1.36.65-2c2.22-3.45 9.621-6 13.35-6z" fill="#ffd2a6"/><path d="m51.995 53v4c0 3.3-2.7 6-6 6h-27.99c-3.3 0-6-2.7-6-6v-4c0 3.3 2.7 6 6 6h27.99c3.3 0 6-2.7 6-6z" fill="#656d78"/><path d="m38.005 47c0-.69-.229-1.36-.649-2h6.64c0-1.1.9-2 2-2 1.11 0 2 .9 2 2v4c0 1.11-.89 2-2 2-1.1 0-2-.89-2-2h-6.64c.419-.64.649-1.31.649-2z" fill="#e6e9ed"/><path d="m37.355 45c.42.64.649 1.31.649 2s-.229 1.36-.649 2c-2.22 3.45-9.63 6-13.36 6-4.42 0-8-3.58-8-8s3.58-8 8-8c3.731 0 11.141 2.55 13.36 6z" fill="#ffd2a6"/></svg>