<svg id="icons" enable-background="new 0 0 64 64" height="512" viewBox="0 0 64 64" width="512" xmlns="http://www.w3.org/2000/svg"><path d="m17 14.494c-6.63 0-12 5.381-12 12v22c0 3.311 2.69 6 6 6 3.18 0 5.78-2.479 5.98-5.609.02-.129.02-.26.02-.391v-3c0-3.318 2.69-6 6-6 3.32 0 6-2.68 6-6v-7c0-6.619-5.37-12-12-12z" fill="#ed5565"/><path d="m47 14.494c-6.63 0-12 5.381-12 12v22c0 3.311 2.69 6 6 6 3.18 0 5.78-2.479 5.98-5.609.02-.129.02-.26.02-.391v-3c0-3.318 2.69-6 6-6 3.32 0 6-2.68 6-6v-7c0-6.619-5.37-12-12-12z" fill="#ed5565"/><path d="m47 23.506c1.66 0 3 1.34 3 3 0 1.648-1.34 3-3 3-1.65 0-3-1.352-3-3 0-1.66 1.35-3 3-3z" fill="#e6e9ed"/><path d="m17 23.506c1.66 0 3 1.34 3 3 0 1.648-1.34 3-3 3-1.65 0-3-1.352-3-3 0-1.66 1.35-3 3-3z" fill="#e6e9ed"/><g fill="#da4453"><path d="m17 17.494c4.96 0 9 4.041 9 9v7c0 1.65-1.34 3-2.99 3h-.01c-4.95 0-8.97 4.021-9 8.961v.039 3c0 1.66-1.35 3-3 3s-3-1.34-3-3v-22c0-4.959 4.04-9 9-9zm3 9.012c0-1.66-1.34-3-3-3-1.65 0-3 1.34-3 3 0 1.648 1.35 3 3 3 1.66 0 3-1.352 3-3z"/><path d="m17 49.494v3c0 3.311-2.69 6-6 6s-6-2.689-6-6v-4c0 3.311 2.69 6 6 6 3.18 0 5.78-2.479 5.98-5.609h.05c-.02.201-.03.4-.03.609z"/><path d="m53 39.494c3.32 0 6-2.68 6-6v4c0 3.32-2.68 6-6 6-3.1 0-5.66 2.361-5.97 5.391h-.05c.02-.129.02-.26.02-.391v-3c0-3.318 2.69-6 6-6z"/><path d="m47 17.494c4.96 0 9 4.041 9 9v7c0 1.65-1.34 3-2.99 3h-.01c-4.95 0-8.97 4.021-9 8.961v.039 3c0 1.66-1.35 3-3 3s-3-1.34-3-3v-22c0-4.959 4.04-9 9-9zm3 9.012c0-1.66-1.34-3-3-3-1.65 0-3 1.34-3 3 0 1.648 1.35 3 3 3 1.66 0 3-1.352 3-3z"/><path d="m23 43.494c-3.1 0-5.66 2.361-5.97 5.391h-.05c.02-.129.02-.26.02-.391v-3c0-3.318 2.69-6 6-6 3.32 0 6-2.68 6-6v4c0 3.32-2.68 6-6 6z"/><path d="m47 52.494c0 3.311-2.69 6-6 6s-6-2.689-6-6v-4c0 3.311 2.69 6 6 6 3.18 0 5.78-2.479 5.98-5.609h.05c-.021.201-.03.4-.03.609z"/></g><path d="m47 6.506h-30-16v3h16 30 16v-3z" fill="#656d78"/><path d="m47 19.502c-.553 0-1-.447-1-1v-11.996c0-.553.447-1 1-1s1 .447 1 1v11.996c0 .553-.447 1-1 1z" fill="#e6e9ed"/><path d="m17 19.502c-.553 0-1-.447-1-1v-11.996c0-.553.447-1 1-1s1 .447 1 1v11.996c0 .553-.447 1-1 1z" fill="#e6e9ed"/></svg>