<svg id="Layer_1" enable-background="new 0 0 512 512" height="512" viewBox="0 0 512 512" width="512" xmlns="http://www.w3.org/2000/svg"><g><path d="m41.9 74.6c10 0 10-15 0-15s-10 15 0 15z"/><path d="m68.8 74.6c10 0 10-15 0-15s-10.1 15 0 15z"/><path d="m95.6 74.6c10 0 10-15 0-15s-10 15 0 15z"/><path d="m15 88.2v-42.2h212.9c9.4 0 9.8-15 0-15h-220.4c-4.1 0-7.5 3.4-7.5 7.5v435c0 4.1 3.4 7.5 7.5 7.5h497c4.1 0 7.5-3.4 7.5-7.5v-149.5c0-9.7-15-9.7-15 0v142h-482v-362.8h482v180.8c0 9.7 15 9.7 15 0v-245.5c0-4.1-3.4-7.5-7.5-7.5h-233.5c-9.4 0-9.8 15 0 15h226v42.2z"/><path d="m215.4 163.9c0-4.1-3.4-7.5-7.5-7.5h-145.1c-9.4 0-9.8 15 0 15h145.1c4.1 0 7.5-3.4 7.5-7.5z"/><path d="m162.9 195.8h-100.1c-9.4 0-9.8 15 0 15h100.1c9.4 0 9.8-15 0-15z"/><path d="m162.9 237.9h-100.1c-4.1 0-7.5 3.4-7.5 7.5v32.9c0 4.1 3.4 7.5 7.5 7.5h100.1c4.1 0 7.5-3.4 7.5-7.5v-32.9c0-4.2-3.4-7.5-7.5-7.5zm-7.5 32.9h-85.1v-17.9h85.1z"/><path d="m464.7 317.9c7.3-8.3 7.3-20.8 0-29.1-12.1-13.7-13.1-17.8-9.5-35.6 2.2-10.9-4.1-21.7-14.6-25.2-17.3-5.8-20.2-8.8-26-26-3.5-10.5-14.4-16.8-25.2-14.6-17.9 3.6-21.9 2.5-35.6-9.5-8.3-7.3-20.8-7.3-29.1 0-13.5 11.9-18.1 13-35.6 9.5-10.8-2.2-21.7 4.1-25.2 14.6-5.8 17.1-9.2 20.3-26 26-10.5 3.5-16.8 14.4-14.6 25.2 3.5 17.7 2.2 22.2-9.5 35.6-7.3 8.3-7.3 20.8 0 29.1 11.9 13.5 13 18.1 9.5 35.6-2.2 10.9 4.1 21.7 14.6 25.2 17.1 5.8 20.3 9.2 26 26 3.5 10.5 14.4 16.8 25.2 14.6 17.7-3.5 22.2-2.2 35.6 9.5 8.2 7.2 20.9 7.2 29.1 0 13.5-11.9 18.1-13 35.6-9.5 10.9 2.2 21.7-4.1 25.2-14.6 5.8-17.1 9.2-20.3 26-26 10.5-3.5 16.8-14.4 14.6-25.2-3.6-17.9-2.5-21.9 9.5-35.6zm-22.5 2.9c-9 10.3-4.1 23.8-1.7 35.6.7 3.5-1.3 7-4.7 8.1-21.8 7.4-28.1 13.7-35.4 35.4-1.1 3.4-4.6 5.4-8.1 4.7-21.6-4.3-31.9-1.5-48.4 13-2.7 2.3-6.7 2.3-9.3 0-17.3-15.1-26.3-17.4-48.4-13-3.5.7-7-1.3-8.1-4.7-7.4-21.8-13.7-28.1-35.4-35.4-3.4-1.1-5.4-4.6-4.7-8.1 4.3-21.6 1.5-31.9-13-48.4-2.3-2.7-2.3-6.7 0-9.3 14.5-16.5 17.3-26.9 13-48.4-.7-3.5 1.3-7 4.7-8.1 21.8-7.4 28.1-13.7 35.4-35.4 1.1-3.4 4.6-5.4 8.1-4.7 21.6 4.3 31.9 1.5 48.4-13 2.7-2.3 6.7-2.3 9.3 0 17 14.9 26.3 17.4 48.4 13 3.5-.7 7 1.3 8.1 4.7 7.2 21.4 14.1 28.2 35.4 35.4 3.4 1.1 5.4 4.6 4.7 8.1-4.4 22.2-1.9 31.5 13 48.4 2.3 2.7 2.3 6.7 0 9.3z"/><path d="m377.7 248c-3.4-2.4-8.1-1.5-10.4 1.9l-68.5 98.4c-5.4 7.7 6.8 16.5 12.3 8.6l68.5-98.4c2.3-3.5 1.5-8.1-1.9-10.5z"/><path d="m331 270.2c0-13.6-9.6-24.7-21.4-24.7-28.4 1.3-28.4 48.1 0 49.4 11.8 0 21.4-11 21.4-24.7zm-27.8 0c0-5.7 3.4-9.7 6.4-9.7s6.4 4 6.4 9.7-3.4 9.7-6.4 9.7-6.4-3.9-6.4-9.7z"/><path d="m368.8 311.7c-11.8 0-21.4 11.1-21.4 24.7 1.2 32.8 41.6 32.8 42.8 0 0-13.6-9.6-24.7-21.4-24.7zm0 34.5c-3 0-6.4-4-6.4-9.7s3.4-9.7 6.4-9.7 6.4 4 6.4 9.7-3.4 9.7-6.4 9.7z"/></g></svg>