<?xml version="1.0" encoding="iso-8859-1"?>
<!-- Generator: Adobe Illustrator 19.0.0, SVG Export Plug-In . SVG Version: 6.00 Build 0)  -->
<svg version="1.1" id="Capa_1" xmlns="http://www.w3.org/2000/svg" xmlns:xlink="http://www.w3.org/1999/xlink" x="0px" y="0px"
	 viewBox="0 0 512.002 512.002" style="enable-background:new 0 0 512.002 512.002;" xml:space="preserve">
<g>
	<g>
		<path d="M142.536,381.515l-12.067-12.067l-69.711,69.711c-1.604,1.596-2.509,3.772-2.509,6.042c0,2.261,0.896,4.429,2.5,6.033
			c9.976,9.984,9.984,26.224,0.017,36.208c-9.976,9.984-26.232,10.01-36.208,0.026c-9.976-9.984-9.984-26.224-0.017-36.208
			c4.83-4.839,11.264-7.501,18.1-7.51l-0.017-17.067c-11.392,0.009-22.102,4.446-30.149,12.51
			c-16.623,16.649-16.606,43.718,0.034,60.341c8.312,8.312,19.226,12.468,30.149,12.468c10.932-0.008,21.872-4.164,30.183-12.493
			c14.558-14.584,16.359-37.155,5.402-53.702L142.536,381.515z"/>
	</g>
</g>
<g>
	<g>
		
			<rect x="165.338" y="320.006" transform="matrix(0.7071 -0.7071 0.7071 0.7071 -178.5835 225.9401)" width="36.208" height="17.067"/>
	</g>
</g>
<g>
	<g>
		
			<rect x="250.666" y="234.678" transform="matrix(0.7071 -0.7071 0.7071 0.7071 -93.2558 261.2839)" width="36.208" height="17.067"/>
	</g>
</g>
<g>
	<g>
		
			<rect x="310.371" y="174.97" transform="matrix(0.7071 -0.7071 0.7071 0.7071 -33.5483 286.0136)" width="36.208" height="17.067"/>
	</g>
</g>
<g>
	<g>
		<rect x="395.707" y="89.633" transform="matrix(0.7071 -0.7071 0.7071 0.7071 51.7879 321.361)" width="36.208" height="17.067"/>
	</g>
</g>
<g>
	<g>
		
			<rect x="451.924" y="21.341" transform="matrix(0.7071 -0.7071 0.7071 0.7071 120.0766 349.6391)" width="60.332" height="17.067"/>
	</g>
</g>
<g>
	<g>
		<path d="M509.482,87.839L424.145,2.503c-3.337-3.337-8.73-3.337-12.067,0l-34.134,34.134c-3.337,3.337-3.337,8.73,0,12.067
			l85.336,85.336c1.664,1.664,3.849,2.5,6.033,2.5c2.185,0,4.369-0.836,6.033-2.5l34.134-34.134
			C512.818,96.569,512.818,91.175,509.482,87.839z M469.314,115.94l-73.27-73.27l22.068-22.068l73.27,73.27L469.314,115.94z"/>
	</g>
</g>
<g>
	<g>
		<path d="M437.714,135.49l-61.186-61.186c-9.677-9.677-26.548-9.66-36.2,0l-35.611,35.602c-9.976,9.976-9.976,26.224,0,36.2
			l61.195,61.186c4.83,4.83,11.256,7.493,18.1,7.493c6.835,0,13.27-2.663,18.1-7.484l35.602-35.602
			C447.698,161.714,447.698,145.475,437.714,135.49z M425.647,159.623l-35.602,35.594c-3.226,3.226-8.849,3.217-12.067,0
			l-61.195-61.186c-3.328-3.328-3.328-8.738,0-12.067l35.619-35.602c3.2-3.209,8.815-3.234,12.058,0l61.186,61.186
			C428.975,150.885,428.975,156.295,425.647,159.623z"/>
	</g>
</g>
<g>
	<g>
		<path d="M364.41,232.91l-85.336-85.336c-3.337-3.337-8.73-3.337-12.067,0l-34.134,34.135c-3.337,3.337-3.337,8.73,0,12.067
			l85.336,85.336c1.664,1.664,3.849,2.5,6.033,2.5c2.185,0,4.369-0.836,6.033-2.5l34.134-34.135
			C367.747,241.64,367.747,236.247,364.41,232.91z M324.242,261.011l-73.27-73.27l22.068-22.068l73.27,73.27L324.242,261.011z"/>
	</g>
</g>
<g>
	<g>
		<path d="M292.642,280.57l-61.186-61.186c-9.993-9.993-26.232-9.984-36.208,0l-35.602,35.602c-4.839,4.83-7.501,11.256-7.501,18.1
			c0,6.835,2.662,13.27,7.501,18.1l61.186,61.186c4.992,4.992,11.546,7.484,18.108,7.484c6.554,0,13.108-2.492,18.1-7.484
			l35.602-35.602c4.83-4.83,7.501-11.264,7.501-18.1C300.143,291.826,297.472,285.392,292.642,280.57z M280.584,304.695
			l-35.602,35.602c-3.337,3.337-8.764,3.328-12.075,0l-61.186-61.186c-1.613-1.613-2.5-3.755-2.5-6.033
			c0-2.287,0.887-4.42,2.492-6.025c0-0.009,0-0.009,0-0.009l35.602-35.602c1.673-1.656,3.857-2.492,6.042-2.492
			c2.185,0,4.369,0.836,6.042,2.492l61.186,61.195c1.613,1.604,2.5,3.738,2.5,6.025C283.085,300.94,282.189,303.082,280.584,304.695
			z"/>
	</g>
</g>
<g>
	<g>
		<path d="M219.339,377.982l-85.336-85.336c-3.337-3.337-8.73-3.337-12.067,0L87.801,326.78c-3.337,3.337-3.337,8.73,0,12.067
			l85.336,85.336c1.664,1.664,3.849,2.5,6.033,2.5c2.185,0,4.369-0.836,6.033-2.5l34.135-34.134
			C222.675,386.712,222.675,381.318,219.339,377.982z M179.171,406.083l-73.27-73.27l22.068-22.068l73.27,73.27L179.171,406.083z"/>
	</g>
</g>
<g>
	<g>
		<rect x="341.309" y="110.939" width="17.067" height="17.067"/>
	</g>
</g>
<g>
	<g>
		<rect x="366.91" y="136.54" width="17.067" height="17.067"/>
	</g>
</g>
<g>
	<g>
		<rect x="204.772" y="256.011" width="17.067" height="17.067"/>
	</g>
</g>
<g>
</g>
<g>
</g>
<g>
</g>
<g>
</g>
<g>
</g>
<g>
</g>
<g>
</g>
<g>
</g>
<g>
</g>
<g>
</g>
<g>
</g>
<g>
</g>
<g>
</g>
<g>
</g>
<g>
</g>
</svg>
