<?xml version="1.0" encoding="iso-8859-1"?>
<!-- Generator: Adobe Illustrator 19.0.0, SVG Export Plug-In . SVG Version: 6.00 Build 0)  -->
<svg version="1.1" id="Capa_1" xmlns="http://www.w3.org/2000/svg" xmlns:xlink="http://www.w3.org/1999/xlink" x="0px" y="0px"
	 viewBox="0 0 512 512" style="enable-background:new 0 0 512 512;" xml:space="preserve">
<path style="fill:#DEDEDE;" d="M42.876,512C19.2,512,0,492.8,0,469.124c0-23.676,19.2-42.876,42.876-42.876v17.15
	c-14.209,0.009-25.717,11.534-25.717,25.734c0.009,14.209,11.534,25.717,25.734,25.717s25.717-11.534,25.717-25.734
	c0-6.826-2.718-13.36-7.538-18.188c-3.344-3.344-3.344-8.781,0-12.125L499.875,0L512,12.125L78.652,445.482
	c13.06,19.757,7.623,46.358-12.125,59.409C59.512,509.53,51.288,512,42.876,512z"/>
<polygon style="fill:#DE4C3C;" points="420.185,6.063 385.884,40.364 428.76,83.24 471.636,126.116 505.937,91.815 463.061,48.939 
	"/>
<path style="fill:#A3603E;" d="M312.258,113.99l35.767-35.767c6.697-6.697,17.553-6.697,24.251,0l61.493,61.493
	c6.697,6.697,6.697,17.553,0,24.251l-35.767,35.767c-6.697,6.697-17.553,6.697-24.251,0l-61.493-61.493
	C305.56,131.552,305.56,120.687,312.258,113.99z"/>
<polygon style="fill:#FDB62F;" points="274.407,151.841 240.106,186.142 282.982,229.018 325.858,271.894 360.159,237.593 
	317.283,194.717 "/>
<path style="fill:#A3603E;" d="M166.479,259.769l35.767-35.767c6.697-6.697,17.553-6.697,24.251,0l61.493,61.493
	c6.697,6.697,6.697,17.553,0,24.251l-35.767,35.767c-6.697,6.697-17.553,6.697-24.251,0l-61.493-61.493
	C159.782,277.322,159.782,266.466,166.479,259.769z"/>
<polygon style="fill:#88B337;" points="128.628,297.62 94.327,331.921 137.203,374.797 180.079,417.673 214.38,383.372 
	171.504,340.496 "/>
<g>
	<rect x="343.008" y="108.965" style="fill:#75462E;" width="17.15" height="17.15"/>
	<rect x="368.734" y="134.691" style="fill:#75462E;" width="17.15" height="17.15"/>
	<rect x="205.805" y="254.744" style="fill:#75462E;" width="17.15" height="17.15"/>
</g>
<rect x="451.696" y="77.938" transform="matrix(-0.7071 0.7071 -0.7071 -0.7071 880.4723 -172.4431)" style="fill:#C94536;" width="48.51" height="36.384"/>
<path style="fill:#8F5436;" d="M373.759,199.742c6.697,6.697,17.553,6.697,24.251,0l35.776-35.776
	c6.697-6.697,6.697-17.553,0-24.251l-13.6-13.6l-60.026,60.026L373.759,199.742z"/>
<rect x="305.917" y="223.711" transform="matrix(-0.7071 0.7071 -0.7071 -0.7071 734.6901 179.4886)" style="fill:#FA962A;" width="48.51" height="36.384"/>
<path style="fill:#8F5436;" d="M227.98,345.521c6.697,6.697,17.553,6.697,24.251,0l35.776-35.776c6.697-6.697,6.697-17.553,0-24.251
	l-13.6-13.6l-60.026,60.026L227.98,345.521z"/>
<rect x="160.138" y="369.493" transform="matrix(-0.7071 0.7071 -0.7071 -0.7071 588.9139 531.4351)" style="fill:#7BA825;" width="48.509" height="36.384"/>
<g>
</g>
<g>
</g>
<g>
</g>
<g>
</g>
<g>
</g>
<g>
</g>
<g>
</g>
<g>
</g>
<g>
</g>
<g>
</g>
<g>
</g>
<g>
</g>
<g>
</g>
<g>
</g>
<g>
</g>
</svg>
