<?xml version="1.0" encoding="UTF-8"?>
<svg width="492px" height="513px" viewBox="0 0 492 513" version="1.1" xmlns="http://www.w3.org/2000/svg" xmlns:xlink="http://www.w3.org/1999/xlink">
    <title>discount</title>
    <g id="Page-1" stroke="none" stroke-width="1" fill="none" fill-rule="evenodd">
        <g id="discount" transform="translate(0.358995, -0.001875)">
            <path d="M467.599005,262.634875 C465.539005,258.419875 465.539005,253.585875 467.599005,249.371875 L486.695005,210.306875 C497.327005,188.555875 488.903005,162.630875 467.517005,151.283875 L429.107005,130.903875 C424.963005,128.705875 422.122005,124.793875 421.311005,120.174875 L413.799005,77.345875 C409.616005,53.499875 387.558005,37.475875 363.591005,40.866875 L320.538005,46.956875 C315.891005,47.612875 311.296005,46.118875 307.925005,42.857875 L276.674005,12.625875 C259.273005,-4.208125 232.013005,-4.209125 214.613005,12.625875 L183.361005,42.860875 C179.989005,46.122875 175.394005,47.613875 170.748005,46.959875 L127.695005,40.869875 C103.720005,37.476875 81.6700053,53.502875 77.4870053,77.348875 L69.9750053,120.175875 C69.1640053,124.795875 66.3230053,128.706875 62.1800053,130.905875 L23.7700053,151.285875 C2.38400526,162.631875 -6.03999474,188.558875 4.59200526,210.309875 L23.6870053,249.373875 C25.7470053,253.588875 25.7470053,258.422875 23.6870053,262.636875 L4.59100526,301.700875 C-6.04099474,323.451875 2.38300526,349.376875 23.7690053,360.723875 L62.1790053,381.103875 C66.3230053,383.301875 69.1640053,387.213875 69.9750053,391.832875 L77.4870053,434.661875 C81.2950053,456.369875 99.9090053,471.593875 121.302005,471.591875 C123.409005,471.591875 125.547005,471.443875 127.696005,471.139875 L170.749005,465.049875 C175.392005,464.390875 179.990005,465.887875 183.362005,469.148875 L214.613005,499.380875 C223.315005,507.798875 234.477005,512.005875 245.643005,512.005875 C256.806005,512.005875 267.975005,507.796875 276.673005,499.380875 L307.925005,469.148875 C311.297005,465.887875 315.893005,464.397875 320.538005,465.049875 L363.591005,471.139875 C387.569005,474.531875 409.616005,458.506875 413.799005,434.660875 L421.312005,391.833875 C422.123005,387.213875 424.964005,383.302875 429.107005,381.103875 L467.517005,360.723875 C488.903005,349.377875 497.327005,323.450875 486.695005,301.699875 L467.599005,262.634875 Z" id="Shape" fill="#EB2627" fill-rule="nonzero"></path>
            <text id="15%" font-family="Nunito-Bold, Nunito" font-size="140" font-weight="bold" fill="#FFFFFF">
                <tspan x="100.85" y="305">15%</tspan>
            </text>
        </g>
    </g>
</svg>