<?xml version="1.0" encoding="UTF-8"?>
<svg width="512px" height="452px" viewBox="0 0 512 452" version="1.1" xmlns="http://www.w3.org/2000/svg" xmlns:xlink="http://www.w3.org/1999/xlink">
    <title>like</title>
    <g id="Page-1" stroke="none" stroke-width="1" fill="none" fill-rule="evenodd">
        <g id="like" fill="#EB2627" fill-rule="nonzero">
            <path d="M376,0 C348.217,0 322.745,8.804 300.293,26.168 C278.768,42.815 264.437,64.018 256,79.436 C247.563,64.017 233.232,42.815 211.707,26.168 C189.255,8.804 163.783,0 136,0 C58.468,0 0,63.417 0,147.514 C0,238.368 72.943,300.529 183.369,394.632 C202.121,410.613 223.376,428.727 245.468,448.046 C248.38,450.596 252.12,452 256,452 C259.88,452 263.62,450.596 266.532,448.047 C288.626,428.725 309.88,410.612 328.643,394.622 C439.057,300.529 512,238.368 512,147.514 C512,63.417 453.532,0 376,0 Z" id="Path"></path>
        </g>
    </g>
</svg>