<svg id="Capa_1" enable-background="new 0 0 512.268 512.268" height="512" viewBox="0 0 512.268 512.268" width="512" xmlns="http://www.w3.org/2000/svg"><g><g><path d="m405.841 439.624h-299.414v47.443c0 7.634 6.188 13.822 13.822 13.822h271.771c7.634 0 13.822-6.188 13.822-13.822v-47.443z" fill="#e4e1e5"/><g><path d="m469.077 388.053c37.56-4.132 48.207-53.718 15.655-72.905l-35.661-21.019c-4.191-2.47-8.052-5.461-11.492-8.9l-6.923-6.923-43.461-62.238-69.455-44.653c-132.753-86.842-320.414 22.313-294.802 192.058l3.702 24.536 15.642 49.893h372.637z" fill="#f5c374"/></g><path d="m81.661 363.473c-17.654-117.001 66.019-205.21 163.194-220.297-118.726-18.769-243.072 80.092-221.917 220.297l3.702 24.536 15.642 49.893h58.723l-15.642-49.893z" fill="#f3b658"/><path d="m490.238 142.743c-6.285-6.856-15.313-9.511-23.727-7.974-2.75.502-5.1-1.846-4.601-4.596 1.528-8.416-1.137-17.441-7.999-23.719-9.646-8.824-24.702-8.965-34.498-.308-11.277 9.966-11.67 27.206-1.185 37.679 1.104 1.103 2.286 2.077 3.523 2.939l-31.375 31.408-33.545 28.183 29.821 35.384 31.937-35.384 31.375-31.408c.863 1.236 1.838 2.417 2.942 3.52 10.484 10.473 27.724 10.062 37.678-1.225 8.646-9.806 8.488-24.863-.346-34.499z" fill="#f8f7f8"/><g><g id="XMLID_269_"><g><path d="m417.18 273.297 4.935-7.222-34.921-50.008-65.595-42.171-6.134 4.202c-6.574-1.056-13.271-1.592-19.928-1.592-33.79 0-65.433 13.283-89.097 37.399-18.421 18.77-30.186 42.429-34.122 68.069h-1.474v20c0 68.71 55.904 124.61 124.62 124.61 44.236 0 84.368-23.103 106.69-60.16l1.25.41 7.157-16.968c10.123-23.998 12.457-51.125 6.619-76.569z" fill="#f3b658"/><path d="m392.104 342.085c-15.73 37.87-53.08 64.5-96.64 64.5-57.78 0-104.62-46.84-104.62-104.61h.01c-.17-26.78 9.79-53.61 29.86-74.06 25.13-25.61 60.1-35.55 92.89-29.85 4.15.73 8.42-.22 11.9-2.6l38.74-26.54c5.8-3.97 13.62-3.25 18.6 1.72l39.11 39.08c4.98 4.97 5.71 12.78 1.74 18.59l-23.97 35.08c-2.6 3.81-3.45 8.53-2.36 13.01 5.3 21.74 3.56 44.85-5.23 65.69z" fill="#f7cf8f"/><path d="m227.135 321.975h.01c-.17-26.78 9.79-53.61 29.86-74.06 25.13-25.61 60.1-35.55 92.89-29.85 4.15.73 8.42-.22 11.9-2.6l38.74-26.54c.121-.083.249-.152.372-.231l-18.063-18.049c-4.98-4.97-12.8-5.69-18.6-1.72l-38.74 26.54c-3.48 2.38-7.75 3.33-11.9 2.6-32.79-5.7-67.76 4.24-92.89 29.85-20.07 20.45-30.03 47.28-29.86 74.06h-.01c0 46.873 30.837 86.548 73.332 99.849-22.655-19.19-37.041-47.839-37.041-79.849z" fill="#f5c374"/></g></g><path d="m443.96 461.624h-375.652c-2.507 0-4.901-1.042-6.609-2.876l-51.74-55.55c-5.38-5.776-1.284-15.188 6.609-15.188h479.132c7.893 0 11.989 9.412 6.609 15.188l-51.74 55.55c-1.708 1.834-4.102 2.876-6.609 2.876z" fill="#efedee"/></g></g><g><path d="m510.859 390.444c-2.185-5.021-6.481-8.48-11.638-9.568 5.513-5.99 9.472-13.508 11.308-22.057 4.304-20.044-4.328-39.723-21.99-50.133l-35.662-21.019c-3.643-2.147-7.006-4.752-9.997-7.743l-6.923-6.923c-2.929-2.929-7.678-2.929-10.606 0-2.929 2.929-2.929 7.678 0 10.606l6.923 6.923c3.885 3.885 8.254 7.269 12.987 10.059l35.662 21.019c14.564 8.584 17.267 23.224 14.94 34.062-2.295 10.69-10.577 22.737-26.929 24.838h-91.238c-4.142 0-7.5 3.358-7.5 7.5s3.358 7.5 7.5 7.5h118.004c.667 0 1.139.31 1.405.921s.17 1.168-.284 1.656l-51.74 55.551c-.289.31-.698.488-1.121.488h-375.652c-.423 0-.832-.178-1.121-.488l-51.74-55.55c-.454-.488-.55-1.044-.284-1.656.266-.611.738-.921 1.405-.921h329.166c4.142 0 7.5-3.358 7.5-7.5s-3.358-7.5-7.5-7.5h-106.749c-4.705-3.37-9.151-7.153-13.207-11.32-22.957-23.58-32.316-57.016-25.037-89.441.907-4.042-1.633-8.054-5.675-8.961-4.043-.907-8.054 1.633-8.961 5.675-8.394 37.389 2.419 75.965 28.924 103.19.281.289.57.57.855.856h-182.79l-2.739-18.155c-4.045-26.807-2.717-52.922 3.947-77.619 6.231-23.093 16.959-44.458 31.888-63.502 32.158-41.025 80.52-67.296 132.684-72.076 4.125-.378 7.162-4.028 6.784-8.153s-4.015-7.159-8.153-6.784c-56.26 5.156-108.425 33.499-143.12 77.76-16.177 20.638-27.806 43.802-34.564 68.849-7.208 26.712-8.653 54.895-4.297 83.765l2.402 15.917h-1.356c-6.684 0-12.492 3.807-15.159 9.936s-1.494 12.974 3.062 17.865l51.74 55.55c3.116 3.346 7.525 5.265 12.098 5.265h30.619v17.943c0 11.757 9.565 21.322 21.322 21.322h271.771c11.757 0 21.322-9.565 21.322-21.322v-17.943h30.619c4.572 0 8.981-1.919 12.098-5.265l51.74-55.55c4.551-4.893 5.724-11.738 3.057-17.867zm-112.518 96.623c0 3.486-2.836 6.322-6.322 6.322h-271.77c-3.486 0-6.322-2.836-6.322-6.322v-17.943h284.414z"/><path d="m229.573 148.928c30.169 2.333 58.452 12.011 84.06 28.763 1.267.829 2.691 1.225 4.099 1.225 2.446 0 4.844-1.195 6.283-3.395 2.268-3.466 1.296-8.115-2.17-10.382-27.745-18.15-58.401-28.635-91.116-31.166-4.132-.323-7.736 2.769-8.056 6.899-.319 4.129 2.77 7.736 6.9 8.056z"/><path d="m201.336 254.791c3.577 2.089 8.17.883 10.259-2.693 4.01-6.866 8.877-13.234 14.467-18.93 22.427-22.85 54.668-33.209 86.251-27.713 6.103 1.062 12.29-.29 17.425-3.807l38.741-26.535c2.827-1.936 6.638-1.583 9.061.837l39.117 39.076c2.424 2.421 2.78 6.231.847 9.06l-23.971 35.078c-3.791 5.547-5.051 12.477-3.458 19.014 4.93 20.223 3.206 41.889-4.854 61.006-1.609 3.816.18 8.215 3.997 9.824.952.401 1.938.591 2.91.591 2.926 0 5.706-1.723 6.914-4.588 9.302-22.062 11.293-47.059 5.606-70.386-.587-2.409-.125-4.959 1.269-6.998l23.972-35.079c5.479-8.018 5.016-18.568-.829-26.067l20.71-20.732c6.242 5.215 14.278 8.006 22.458 7.758 9.293-.294 17.81-4.31 23.98-11.307 11.102-12.588 10.908-32.147-.441-44.527-6.741-7.353-16.188-11.224-25.961-10.805.407-9.769-3.473-19.217-10.833-25.949-12.392-11.337-31.951-11.51-44.527-.394-6.991 6.179-10.998 14.699-11.281 23.993-.25 8.183 2.56 16.212 7.781 22.449l-20.576 20.597-2.228-2.226c-7.526-7.519-19.36-8.612-28.138-2.601l-38.741 26.535c-1.887 1.293-4.152 1.791-6.375 1.404-36.44-6.343-73.647 5.613-99.529 31.983-6.457 6.578-12.081 13.937-16.714 21.871-2.092 3.58-.885 8.172 2.691 10.261zm199.645-76.625 26.075-26.103c1.569-1.57 2.361-3.755 2.164-5.966s-1.363-4.221-3.185-5.489c-.911-.634-1.755-1.337-2.508-2.089-3.62-3.616-5.527-8.425-5.371-13.542.156-5.111 2.366-9.803 6.222-13.211 6.91-6.107 17.659-6.009 24.469.222 4.693 4.293 6.817 10.591 5.682 16.847-.674 3.713.508 7.512 3.161 10.163s6.456 3.827 10.167 3.15c6.253-1.143 12.553.976 16.851 5.664 6.239 6.805 6.347 17.553.248 24.47-3.403 3.859-8.093 6.074-13.204 6.236-5.127.159-9.929-1.74-13.549-5.356-.752-.751-1.456-1.594-2.092-2.505-1.271-1.82-3.282-2.984-5.493-3.179-2.216-.191-4.396.6-5.964 2.171l-26.075 26.102-10.58-10.568z"/><path d="m100.605 265.048c0-4.142-3.358-7.5-7.5-7.5h-6.625c-4.142 0-7.5 3.358-7.5 7.5s3.358 7.5 7.5 7.5h6.625c4.142 0 7.5-3.358 7.5-7.5z"/><path d="m130.309 257.548c-4.142 0-7.5 3.358-7.5 7.5s3.358 7.5 7.5 7.5h14.78c4.142 0 7.5-3.358 7.5-7.5s-3.358-7.5-7.5-7.5z"/><path d="m102.788 304.656h8.664c4.142 0 7.5-3.358 7.5-7.5s-3.358-7.5-7.5-7.5h-8.664c-4.142 0-7.5 3.358-7.5 7.5s3.358 7.5 7.5 7.5z"/><path d="m64.404 145.065-.735 7.225c-.419 4.121 2.582 7.801 6.703 8.22.258.026.514.039.768.039 3.8 0 7.059-2.879 7.452-6.742l.735-7.225c1.438-14.15-1.188-28.339-7.598-41.034-10.463-20.722-7.832-45.808 6.701-63.91l20.523-25.563c2.593-3.23 2.077-7.951-1.153-10.543-3.23-2.594-7.95-2.077-10.543 1.153l-20.523 25.562c-18.206 22.676-21.501 54.103-8.396 80.062 5.116 10.134 7.214 21.461 6.066 32.756z"/><path d="m111.434 118.633v8.578c0 4.142 3.358 7.5 7.5 7.5s7.5-3.358 7.5-7.5v-8.578c0-7.142-1.646-14.314-4.76-20.743-4.671-9.643-4.302-20.963.987-30.283l2.796-4.926c2.045-3.603.782-8.18-2.82-10.225-3.604-2.043-8.18-.781-10.225 2.821l-2.796 4.926c-7.725 13.61-8.264 30.144-1.441 44.227 2.132 4.401 3.259 9.313 3.259 14.203z"/></g></g></svg>