<svg height="512pt" viewBox="-63 0 512 512" width="512pt" xmlns="http://www.w3.org/2000/svg"><path d="m327.5 0h-270c-31.707031 0-57.5 25.792969-57.5 57.5v38.5c0 4.140625 3.355469 7.5 7.5 7.5s7.5-3.359375 7.5-7.5v-38.5c0-23.433594 19.066406-42.5 42.5-42.5h270c23.433594 0 42.5 19.066406 42.5 42.5v397c0 23.433594-19.066406 42.5-42.5 42.5h-270c-23.433594 0-42.5-19.066406-42.5-42.5v-326.832031c0-4.144531-3.355469-7.5-7.5-7.5s-7.5 3.355469-7.5 7.5v326.832031c0 31.707031 25.792969 57.5 57.5 57.5h270c31.707031 0 57.5-25.792969 57.5-57.5v-397c0-31.707031-25.792969-57.5-57.5-57.5zm0 0"/><path d="m327.5 30h-270c-15.164062 0-27.5 12.335938-27.5 27.5v397c0 15.164062 12.335938 27.5 27.5 27.5h270c15.164062 0 27.5-12.335938 27.5-27.5v-198.5c0-4.140625-3.355469-7.5-7.5-7.5s-7.5 3.359375-7.5 7.5v113.476562h-18.300781c-4.144531 0-7.5 3.359376-7.5 7.5 0 4.140626 3.355469 7.5 7.5 7.5h18.300781v70.023438c0 6.894531-5.605469 12.5-12.5 12.5h-270c-6.894531 0-12.5-5.605469-12.5-12.5v-42h15.167969c4.140625 0 7.5-3.359375 7.5-7.5s-3.359375-7.5-7.5-7.5h-15.167969v-124.5625h19.832031c4.144531 0 7.5-3.355469 7.5-7.5 0-4.140625-3.355469-7.5-7.5-7.5h-19.832031v-133.863281h15.167969c4.140625 0 7.5-3.355469 7.5-7.5 0-4.140625-3.359375-7.5-7.5-7.5h-15.167969v-51.574219c0-6.894531 5.605469-12.5 12.5-12.5h270c6.894531 0 12.5 5.605469 12.5 12.5v85.765625h-18.300781c-4.144531 0-7.5 3.355469-7.5 7.5 0 4.140625 3.355469 7.5 7.5 7.5h18.300781v65.734375c0 4.140625 3.355469 7.5 7.5 7.5s7.5-3.359375 7.5-7.5c.007812-4.460938 0-138.941406 0-166.5 0-15.164062-12.335938-27.5-27.5-27.5zm0 0"/><path d="m303.234375 108.332031c0-23.96875-19.5-43.46875-43.46875-43.46875h-134.535156c-23.964844 0-43.464844 19.5-43.464844 43.46875v33.996094c0 23.96875 19.5 43.464844 43.464844 43.464844h41.484375c9.003906 0 17.570312 4.328125 22.914062 11.578125l22.605469 30.667968c4.503906 6.105469 10.507813 10.847657 17.292969 13.878907v21.453125c0 15.164062 12.339844 27.5 27.5 27.5 15.164062 0 27.5-12.335938 27.5-27.5v-22.226563c11.148437-6.210937 18.707031-18.109375 18.707031-31.746093zm-33.703125 155.039063c0 6.890625-5.609375 12.5-12.5 12.5-6.894531 0-12.5-5.609375-12.5-12.5v-17.746094c.894531.058594 1.792969.089844 2.691406.089844h19.695313c.878906 0 1.746093-.042969 2.609375-.105469v17.761719zm18.703125-53.972656c0 11.753906-9.5625 21.316406-21.316406 21.316406h-19.691407c-9.007812 0-17.574218-4.328125-22.914062-11.578125l-22.609375-30.667969c-8.15625-11.066406-21.238281-17.675781-34.988281-17.675781h-41.480469c-15.695313 0-28.46875-12.769531-28.46875-28.464844v-33.996094c0-15.699219 12.773437-28.46875 28.46875-28.46875h134.535156c15.695313 0 28.464844 12.769531 28.464844 28.46875zm0 0"/><path d="m259.769531 432.136719h-99.269531c-4.144531 0-7.5 3.355469-7.5 7.5 0 4.140625 3.355469 7.5 7.5 7.5h99.269531c23.964844 0 43.464844-19.5 43.464844-43.46875v-33.996094c0-23.96875-19.5-43.464844-43.464844-43.464844h-41.484375c-9.003906 0-17.570312-4.328125-22.914062-11.578125l-22.605469-30.667968c-4.503906-6.105469-10.507813-10.847657-17.292969-13.878907v-21.453125c0-15.164062-12.339844-27.5-27.5-27.5-15.164062 0-27.5 12.335938-27.5 27.5v22.226563c-11.148437 6.210937-18.707031 18.109375-18.707031 31.746093v101.066407c0 23.96875 19.5 43.46875 43.46875 43.46875h3.019531c4.140625 0 7.5-3.359375 7.5-7.5 0-4.144531-3.359375-7.5-7.5-7.5h-3.019531c-15.695313 0-28.46875-12.769531-28.46875-28.46875v-101.066407c0-11.753906 9.5625-21.316406 21.316406-21.316406h19.695313c9.003906 0 17.570312 4.328125 22.914062 11.578125l22.605469 30.667969c8.15625 11.066406 21.238281 17.675781 34.988281 17.675781h41.480469c15.699219 0 28.46875 12.769531 28.46875 28.464844v33.996094c0 15.699219-12.769531 28.46875-28.464844 28.46875zm-141.6875-165.851563c-.878906 0-1.75.042969-2.613281.105469v-17.761719c0-6.890625 5.609375-12.5 12.5-12.5 6.894531 0 12.5 5.609375 12.5 12.5v17.746094c-.894531-.058594-1.792969-.089844-2.691406-.089844zm0 0"/></svg>