<?xml version="1.0" encoding="UTF-8"?>
<svg xmlns="http://www.w3.org/2000/svg" viewBox="0 0 512 512" width="512" height="512"><g id="outline"><circle cx="120" cy="305" r="8"/><circle cx="136" cy="240" r="8"/><circle cx="230.983" cy="217.017" r="8"/><path d="M457.4,202.11a77.044,77.044,0,0,0-94.251-11.6,128.353,128.353,0,0,0-39.237,36.535,116.55,116.55,0,0,0-48.369-34.866,199.42,199.42,0,0,0-87.634-12.53l-21.571,1.8a92.883,92.883,0,0,0-85.173,90.944A69.136,69.136,0,0,0,41.828,320H32a8,8,0,0,0-7.92,9.131l16,112A8,8,0,0,0,48,448H432a8,8,0,0,0,7.92-6.869l16-112a7.986,7.986,0,0,0-5.49-8.748A129.129,129.129,0,0,0,469,296.36,77.042,77.042,0,0,0,457.4,202.11ZM290.72,403.2a19,19,0,1,1-36.107,9.246,8,8,0,0,0-7.547-7.547,18.993,18.993,0,1,1,9.245-36.106,8,8,0,0,0,9.105-1.563l39.976-39.975,26.865,26.865L292.281,394.1A8,8,0,0,0,290.72,403.2Zm7.129-91.03-40.115,40.114A35.065,35.065,0,0,0,239.643,352H216V319.839h49.371a8,8,0,0,0,7.543-5.334,15.97,15.97,0,0,1,25.563-6.729Zm-178.19-92.514a77.016,77.016,0,0,1,48.008-22.266l21.571-1.8A183.343,183.343,0,0,1,269.8,207.11a100.655,100.655,0,0,1,45.264,34.59,128.16,128.16,0,0,0-9.624,24.718A78.247,78.247,0,0,0,266.537,256H248l14.4-19.2a8,8,0,1,0-12.8-9.6l-35.626,48.121a8,8,0,0,0,12.978,9.358L236.1,272h15.594l-2.371,3.6a8,8,0,1,0,13.364,8.8l8.062-12.242a62.252,62.252,0,0,1,31.25,11l-1.059,7.414a32,32,0,0,0-40.648,13.27H210.666l-21.1-15.827a115.762,115.762,0,0,0-21.4-12.71,31.392,31.392,0,0,1-.162-3.174,30.735,30.735,0,0,1,9.062-21.876l12.6-12.595a8,8,0,0,0-11.314-11.314l-12.6,12.6a46.585,46.585,0,0,0-13.659,30.431,114.6,114.6,0,0,0-54.659-2.016A76.343,76.343,0,0,1,119.659,219.655Zm-23.152,64.3a98.651,98.651,0,0,1,83.457,16.854L200,315.839v35.636a17.965,17.965,0,0,1-11.568-8.977,7.994,7.994,0,0,0-4.224-14.649l-.447-1.789A8,8,0,0,0,176,320H58.386A53.273,53.273,0,0,1,96.507,283.958ZM41.224,336h128.53l1.561,6.247A33.95,33.95,0,0,0,204.3,368h13.772a35,35,0,0,0,21.555,51.884A34.886,34.886,0,0,0,245.312,432H54.938Zm383.838,96H301.836a35.088,35.088,0,0,0,5.392-30.224l40.114-40.115,29.7-4.243A128.215,128.215,0,0,0,431.88,336h6.9Zm30.221-143.872a111.96,111.96,0,0,1-80.5,53.451L346.4,345.634l-32.522-32.522,4.056-28.384c.171-1.2.365-2.389.574-3.576l.012-.068a111.925,111.925,0,0,1,52.864-76.857,61.152,61.152,0,0,1,83.9,83.9Z"/><path d="M388.113,258.672a9,9,0,1,0,12.726,0A9,9,0,0,0,388.113,258.672Z"/><path d="M388.113,296.851a9,9,0,1,0,12.726,0A9,9,0,0,0,388.113,296.851Z"/><circle cx="356.297" cy="303.214" r="8.999"/><path d="M96,400H80a8,8,0,0,0,0,16H96a8,8,0,0,0,0-16Z"/><path d="M176,400H128a8,8,0,0,0,0,16h48a8,8,0,0,0,0-16Z"/><path d="M396,152a8,8,0,0,0,16,0c0-3.578.888-4.91,2.656-7.563C416.911,141.054,420,136.421,420,128s-3.089-13.055-5.344-16.438C412.888,108.908,412,107.576,412,104s.888-4.909,2.656-7.561C416.911,93.055,420,88.422,420,80a8,8,0,0,0-16,0c0,3.577-.888,4.909-2.656,7.561C399.089,90.943,396,95.576,396,104s3.089,13.055,5.344,16.438C403.112,123.089,404,124.421,404,128s-.888,4.91-2.656,7.563C399.089,138.945,396,143.578,396,152Z"/><path d="M440,152a8,8,0,0,0,16,0c0-3.578.888-4.91,2.656-7.563C460.911,141.054,464,136.421,464,128s-3.088-13.055-5.344-16.438C456.888,108.908,456,107.576,456,104a10.217,10.217,0,0,1,.877-4.612,8,8,0,1,0-14.5-6.772A26.323,26.323,0,0,0,440,104c0,8.422,3.089,13.055,5.344,16.438C447.112,123.089,448,124.421,448,128s-.888,4.91-2.656,7.563C443.089,138.945,440,143.578,440,152Z"/><path d="M352,152a8,8,0,0,0,16,0c0-3.578.888-4.91,2.656-7.563C372.911,141.054,376,136.421,376,128s-3.088-13.055-5.344-16.438C368.888,108.908,368,107.576,368,104a10.217,10.217,0,0,1,.877-4.612,8,8,0,1,0-14.5-6.772A26.323,26.323,0,0,0,352,104c0,8.422,3.089,13.055,5.344,16.438C359.112,123.089,360,124.421,360,128s-.888,4.91-2.656,7.563C355.089,138.945,352,143.578,352,152Z"/></g></svg>
